<svg width="34" height="24" viewBox="0 0 34 24" fill="none" xmlns="http://www.w3.org/2000/svg">
    <path d="M11.2282 22.0422L11.2284 22.0424C11.6627 22.4742 12.2326 22.6901 12.7997 22.6901C13.3668 22.6901 13.9367 22.4742 14.3711 22.042L14.3712 22.0419L31.6518 4.84621L31.158 4.35002L31.6518 4.8462C32.5222 3.98011 32.5223 2.57458 31.6517 1.70859C30.7832 0.844436 29.3773 0.844466 28.5089 1.70868C28.5089 1.70869 28.5089 1.70869 28.5089 1.70869L12.7997 17.3406L5.41996 9.9972L5.41977 9.99701C4.55141 9.13359 3.14564 9.13308 2.27702 9.99744C1.40653 10.8634 1.4067 12.2689 2.27702 13.135L2.27703 13.135L11.2282 22.0422Z" fill="white" stroke="white" stroke-width="1.4"/>
</svg>
